<mxfile host="app.diagrams.net" agent="Mozilla/5.0 (Windows NT 10.0; Win64; x64) AppleWebKit/537.36 (KHTML, like Gecko) Chrome/131.0.0.0 Safari/537.36" version="25.0.3">
  <diagram name="Página-1" id="xW6YmFVxIwyADmmNGGPy">
    <mxGraphModel dx="1222" dy="576" grid="1" gridSize="10" guides="1" tooltips="1" connect="1" arrows="1" fold="1" page="1" pageScale="1" pageWidth="827" pageHeight="1169" math="0" shadow="0">
      <root>
        <mxCell id="0" />
        <mxCell id="1" parent="0" />
        <mxCell id="YmaF1vZXDNoTuAtLSCQE-12" style="edgeStyle=orthogonalEdgeStyle;rounded=0;orthogonalLoop=1;jettySize=auto;html=1;entryX=0.5;entryY=0;entryDx=0;entryDy=0;" edge="1" parent="1" source="YmaF1vZXDNoTuAtLSCQE-1" target="YmaF1vZXDNoTuAtLSCQE-4">
          <mxGeometry relative="1" as="geometry" />
        </mxCell>
        <mxCell id="YmaF1vZXDNoTuAtLSCQE-1" value="INÍCIO" style="strokeWidth=2;html=1;shape=mxgraph.flowchart.start_1;whiteSpace=wrap;" vertex="1" parent="1">
          <mxGeometry x="350" y="20" width="100" height="60" as="geometry" />
        </mxCell>
        <mxCell id="YmaF1vZXDNoTuAtLSCQE-3" value="QUANTIDADE DE EXPERIÊNCIA(XP)" style="shape=parallelogram;html=1;strokeWidth=2;perimeter=parallelogramPerimeter;whiteSpace=wrap;rounded=1;arcSize=12;size=0.23;" vertex="1" parent="1">
          <mxGeometry x="330" y="210" width="140" height="60" as="geometry" />
        </mxCell>
        <mxCell id="YmaF1vZXDNoTuAtLSCQE-13" style="edgeStyle=orthogonalEdgeStyle;rounded=0;orthogonalLoop=1;jettySize=auto;html=1;entryX=0.5;entryY=0;entryDx=0;entryDy=0;" edge="1" parent="1" source="YmaF1vZXDNoTuAtLSCQE-4" target="YmaF1vZXDNoTuAtLSCQE-3">
          <mxGeometry relative="1" as="geometry" />
        </mxCell>
        <mxCell id="YmaF1vZXDNoTuAtLSCQE-4" value="NOME" style="shape=parallelogram;html=1;strokeWidth=2;perimeter=parallelogramPerimeter;whiteSpace=wrap;rounded=1;arcSize=12;size=0.23;" vertex="1" parent="1">
          <mxGeometry x="330" y="110" width="140" height="60" as="geometry" />
        </mxCell>
        <mxCell id="YmaF1vZXDNoTuAtLSCQE-16" style="edgeStyle=orthogonalEdgeStyle;rounded=0;orthogonalLoop=1;jettySize=auto;html=1;entryX=0;entryY=0.5;entryDx=0;entryDy=0;entryPerimeter=0;" edge="1" parent="1" source="YmaF1vZXDNoTuAtLSCQE-5" target="YmaF1vZXDNoTuAtLSCQE-15">
          <mxGeometry relative="1" as="geometry">
            <mxPoint x="620" y="340" as="targetPoint" />
          </mxGeometry>
        </mxCell>
        <mxCell id="YmaF1vZXDNoTuAtLSCQE-17" value="SIM" style="edgeLabel;html=1;align=center;verticalAlign=middle;resizable=0;points=[];" vertex="1" connectable="0" parent="YmaF1vZXDNoTuAtLSCQE-16">
          <mxGeometry x="-0.0182" y="3" relative="1" as="geometry">
            <mxPoint as="offset" />
          </mxGeometry>
        </mxCell>
        <mxCell id="YmaF1vZXDNoTuAtLSCQE-5" value="XP &amp;gt;= 100001" style="strokeWidth=2;html=1;shape=mxgraph.flowchart.decision;whiteSpace=wrap;" vertex="1" parent="1">
          <mxGeometry x="355" y="300" width="90" height="90" as="geometry" />
        </mxCell>
        <mxCell id="YmaF1vZXDNoTuAtLSCQE-6" value="XP &amp;lt;= 10000&lt;div&gt;&amp;amp;&amp;amp;&lt;/div&gt;&lt;div&gt;XP &amp;gt;= 9001&lt;/div&gt;" style="strokeWidth=2;html=1;shape=mxgraph.flowchart.decision;whiteSpace=wrap;" vertex="1" parent="1">
          <mxGeometry x="335" y="420" width="130" height="110" as="geometry" />
        </mxCell>
        <mxCell id="YmaF1vZXDNoTuAtLSCQE-27" style="edgeStyle=orthogonalEdgeStyle;rounded=0;orthogonalLoop=1;jettySize=auto;html=1;entryX=0;entryY=0.5;entryDx=0;entryDy=0;entryPerimeter=0;" edge="1" parent="1" source="YmaF1vZXDNoTuAtLSCQE-7" target="YmaF1vZXDNoTuAtLSCQE-26">
          <mxGeometry relative="1" as="geometry">
            <mxPoint x="590" y="615" as="targetPoint" />
          </mxGeometry>
        </mxCell>
        <mxCell id="YmaF1vZXDNoTuAtLSCQE-28" value="SIM" style="edgeLabel;html=1;align=center;verticalAlign=middle;resizable=0;points=[];" vertex="1" connectable="0" parent="YmaF1vZXDNoTuAtLSCQE-27">
          <mxGeometry x="-0.2" y="2" relative="1" as="geometry">
            <mxPoint as="offset" />
          </mxGeometry>
        </mxCell>
        <mxCell id="YmaF1vZXDNoTuAtLSCQE-7" value="XP &amp;lt;= 9000&lt;div&gt;&amp;amp;&amp;amp;&lt;/div&gt;&lt;div&gt;XP &amp;gt;= 8001&lt;/div&gt;" style="strokeWidth=2;html=1;shape=mxgraph.flowchart.decision;whiteSpace=wrap;" vertex="1" parent="1">
          <mxGeometry x="335" y="560" width="130" height="110" as="geometry" />
        </mxCell>
        <mxCell id="YmaF1vZXDNoTuAtLSCQE-8" value="XP &amp;lt;= 8000&lt;div&gt;&amp;amp;&amp;amp;&lt;/div&gt;&lt;div&gt;XP &amp;gt;= 7001&lt;/div&gt;" style="strokeWidth=2;html=1;shape=mxgraph.flowchart.decision;whiteSpace=wrap;" vertex="1" parent="1">
          <mxGeometry x="335" y="700" width="130" height="110" as="geometry" />
        </mxCell>
        <mxCell id="YmaF1vZXDNoTuAtLSCQE-9" value="XP &amp;lt;= 7000&lt;div&gt;&amp;amp;&amp;amp;&lt;/div&gt;&lt;div&gt;XP &amp;gt;= 6000&lt;/div&gt;" style="strokeWidth=2;html=1;shape=mxgraph.flowchart.decision;whiteSpace=wrap;" vertex="1" parent="1">
          <mxGeometry x="335" y="840" width="130" height="110" as="geometry" />
        </mxCell>
        <mxCell id="YmaF1vZXDNoTuAtLSCQE-10" value="XP &amp;lt;= 5999&lt;div&gt;&amp;amp;&amp;amp;&lt;/div&gt;&lt;div&gt;XP &amp;gt;= 2001&lt;/div&gt;" style="strokeWidth=2;html=1;shape=mxgraph.flowchart.decision;whiteSpace=wrap;" vertex="1" parent="1">
          <mxGeometry x="340" y="990" width="130" height="110" as="geometry" />
        </mxCell>
        <mxCell id="YmaF1vZXDNoTuAtLSCQE-11" value="XP &amp;lt;= 2000&lt;div&gt;&amp;amp;&amp;amp;&lt;/div&gt;&lt;div&gt;XP &amp;gt;= 1001&lt;/div&gt;" style="strokeWidth=2;html=1;shape=mxgraph.flowchart.decision;whiteSpace=wrap;" vertex="1" parent="1">
          <mxGeometry x="340" y="1140" width="130" height="110" as="geometry" />
        </mxCell>
        <mxCell id="YmaF1vZXDNoTuAtLSCQE-14" style="edgeStyle=orthogonalEdgeStyle;rounded=0;orthogonalLoop=1;jettySize=auto;html=1;entryX=0.5;entryY=0;entryDx=0;entryDy=0;entryPerimeter=0;" edge="1" parent="1" source="YmaF1vZXDNoTuAtLSCQE-3" target="YmaF1vZXDNoTuAtLSCQE-5">
          <mxGeometry relative="1" as="geometry" />
        </mxCell>
        <mxCell id="YmaF1vZXDNoTuAtLSCQE-15" value="Olá! nome! seu level é Radiante!" style="strokeWidth=2;html=1;shape=mxgraph.flowchart.display;whiteSpace=wrap;" vertex="1" parent="1">
          <mxGeometry x="610" y="312.5" width="110" height="65" as="geometry" />
        </mxCell>
        <mxCell id="YmaF1vZXDNoTuAtLSCQE-19" style="edgeStyle=orthogonalEdgeStyle;rounded=0;orthogonalLoop=1;jettySize=auto;html=1;entryX=0.5;entryY=0;entryDx=0;entryDy=0;entryPerimeter=0;" edge="1" parent="1" source="YmaF1vZXDNoTuAtLSCQE-5" target="YmaF1vZXDNoTuAtLSCQE-6">
          <mxGeometry relative="1" as="geometry" />
        </mxCell>
        <mxCell id="YmaF1vZXDNoTuAtLSCQE-20" value="NÃO" style="edgeLabel;html=1;align=center;verticalAlign=middle;resizable=0;points=[];" vertex="1" connectable="0" parent="YmaF1vZXDNoTuAtLSCQE-19">
          <mxGeometry x="-0.64" relative="1" as="geometry">
            <mxPoint as="offset" />
          </mxGeometry>
        </mxCell>
        <mxCell id="YmaF1vZXDNoTuAtLSCQE-21" value="Olá! nome! seu level é Imortal!" style="strokeWidth=2;html=1;shape=mxgraph.flowchart.display;whiteSpace=wrap;" vertex="1" parent="1">
          <mxGeometry x="600" y="442.5" width="110" height="65" as="geometry" />
        </mxCell>
        <mxCell id="YmaF1vZXDNoTuAtLSCQE-22" style="edgeStyle=orthogonalEdgeStyle;rounded=0;orthogonalLoop=1;jettySize=auto;html=1;entryX=0;entryY=0.5;entryDx=0;entryDy=0;entryPerimeter=0;" edge="1" parent="1" source="YmaF1vZXDNoTuAtLSCQE-6" target="YmaF1vZXDNoTuAtLSCQE-21">
          <mxGeometry relative="1" as="geometry" />
        </mxCell>
        <mxCell id="YmaF1vZXDNoTuAtLSCQE-23" value="SIM" style="edgeLabel;html=1;align=center;verticalAlign=middle;resizable=0;points=[];" vertex="1" connectable="0" parent="YmaF1vZXDNoTuAtLSCQE-22">
          <mxGeometry x="-0.0667" y="-5" relative="1" as="geometry">
            <mxPoint as="offset" />
          </mxGeometry>
        </mxCell>
        <mxCell id="YmaF1vZXDNoTuAtLSCQE-24" style="edgeStyle=orthogonalEdgeStyle;rounded=0;orthogonalLoop=1;jettySize=auto;html=1;entryX=0.5;entryY=0;entryDx=0;entryDy=0;entryPerimeter=0;" edge="1" parent="1" source="YmaF1vZXDNoTuAtLSCQE-6" target="YmaF1vZXDNoTuAtLSCQE-7">
          <mxGeometry relative="1" as="geometry" />
        </mxCell>
        <mxCell id="YmaF1vZXDNoTuAtLSCQE-25" value="NÃO" style="edgeLabel;html=1;align=center;verticalAlign=middle;resizable=0;points=[];" vertex="1" connectable="0" parent="YmaF1vZXDNoTuAtLSCQE-24">
          <mxGeometry x="0.24" y="-3" relative="1" as="geometry">
            <mxPoint as="offset" />
          </mxGeometry>
        </mxCell>
        <mxCell id="YmaF1vZXDNoTuAtLSCQE-26" value="Olá! nome! seu level é Ascendente!" style="strokeWidth=2;html=1;shape=mxgraph.flowchart.display;whiteSpace=wrap;" vertex="1" parent="1">
          <mxGeometry x="610" y="582.5" width="110" height="65" as="geometry" />
        </mxCell>
        <mxCell id="YmaF1vZXDNoTuAtLSCQE-29" style="edgeStyle=orthogonalEdgeStyle;rounded=0;orthogonalLoop=1;jettySize=auto;html=1;entryX=0.5;entryY=0;entryDx=0;entryDy=0;entryPerimeter=0;" edge="1" parent="1" source="YmaF1vZXDNoTuAtLSCQE-7" target="YmaF1vZXDNoTuAtLSCQE-8">
          <mxGeometry relative="1" as="geometry" />
        </mxCell>
        <mxCell id="YmaF1vZXDNoTuAtLSCQE-30" value="NÃO" style="edgeLabel;html=1;align=center;verticalAlign=middle;resizable=0;points=[];" vertex="1" connectable="0" parent="YmaF1vZXDNoTuAtLSCQE-29">
          <mxGeometry x="0.32" y="1" relative="1" as="geometry">
            <mxPoint as="offset" />
          </mxGeometry>
        </mxCell>
        <mxCell id="YmaF1vZXDNoTuAtLSCQE-31" value="Olá! nome! seu level é Platina!" style="strokeWidth=2;html=1;shape=mxgraph.flowchart.display;whiteSpace=wrap;" vertex="1" parent="1">
          <mxGeometry x="600" y="722.5" width="110" height="65" as="geometry" />
        </mxCell>
        <mxCell id="YmaF1vZXDNoTuAtLSCQE-32" style="edgeStyle=orthogonalEdgeStyle;rounded=0;orthogonalLoop=1;jettySize=auto;html=1;entryX=0;entryY=0.5;entryDx=0;entryDy=0;entryPerimeter=0;" edge="1" parent="1" source="YmaF1vZXDNoTuAtLSCQE-8" target="YmaF1vZXDNoTuAtLSCQE-31">
          <mxGeometry relative="1" as="geometry" />
        </mxCell>
        <mxCell id="YmaF1vZXDNoTuAtLSCQE-33" value="SIM" style="edgeLabel;html=1;align=center;verticalAlign=middle;resizable=0;points=[];" vertex="1" connectable="0" parent="YmaF1vZXDNoTuAtLSCQE-32">
          <mxGeometry x="0.037" y="1" relative="1" as="geometry">
            <mxPoint as="offset" />
          </mxGeometry>
        </mxCell>
        <mxCell id="YmaF1vZXDNoTuAtLSCQE-36" style="edgeStyle=orthogonalEdgeStyle;rounded=0;orthogonalLoop=1;jettySize=auto;html=1;entryX=0.5;entryY=0;entryDx=0;entryDy=0;entryPerimeter=0;" edge="1" parent="1" source="YmaF1vZXDNoTuAtLSCQE-8" target="YmaF1vZXDNoTuAtLSCQE-9">
          <mxGeometry relative="1" as="geometry" />
        </mxCell>
        <mxCell id="YmaF1vZXDNoTuAtLSCQE-37" value="NÃO" style="text;html=1;align=center;verticalAlign=middle;resizable=0;points=[];autosize=1;strokeColor=none;fillColor=none;" vertex="1" parent="1">
          <mxGeometry x="375" y="808" width="50" height="30" as="geometry" />
        </mxCell>
        <mxCell id="YmaF1vZXDNoTuAtLSCQE-38" value="Olá! nome! seu level é Ouro!" style="strokeWidth=2;html=1;shape=mxgraph.flowchart.display;whiteSpace=wrap;" vertex="1" parent="1">
          <mxGeometry x="600" y="862.5" width="110" height="65" as="geometry" />
        </mxCell>
        <mxCell id="YmaF1vZXDNoTuAtLSCQE-39" style="edgeStyle=orthogonalEdgeStyle;rounded=0;orthogonalLoop=1;jettySize=auto;html=1;entryX=0;entryY=0.5;entryDx=0;entryDy=0;entryPerimeter=0;" edge="1" parent="1" source="YmaF1vZXDNoTuAtLSCQE-9" target="YmaF1vZXDNoTuAtLSCQE-38">
          <mxGeometry relative="1" as="geometry" />
        </mxCell>
        <mxCell id="YmaF1vZXDNoTuAtLSCQE-40" value="SIM" style="edgeLabel;html=1;align=center;verticalAlign=middle;resizable=0;points=[];" vertex="1" connectable="0" parent="YmaF1vZXDNoTuAtLSCQE-39">
          <mxGeometry x="0.1259" y="3" relative="1" as="geometry">
            <mxPoint as="offset" />
          </mxGeometry>
        </mxCell>
        <mxCell id="YmaF1vZXDNoTuAtLSCQE-41" style="edgeStyle=orthogonalEdgeStyle;rounded=0;orthogonalLoop=1;jettySize=auto;html=1;entryX=0.454;entryY=0.018;entryDx=0;entryDy=0;entryPerimeter=0;" edge="1" parent="1" source="YmaF1vZXDNoTuAtLSCQE-9" target="YmaF1vZXDNoTuAtLSCQE-10">
          <mxGeometry relative="1" as="geometry" />
        </mxCell>
        <mxCell id="YmaF1vZXDNoTuAtLSCQE-42" value="NÃO" style="edgeLabel;html=1;align=center;verticalAlign=middle;resizable=0;points=[];" vertex="1" connectable="0" parent="YmaF1vZXDNoTuAtLSCQE-41">
          <mxGeometry x="-0.3485" y="1" relative="1" as="geometry">
            <mxPoint as="offset" />
          </mxGeometry>
        </mxCell>
        <mxCell id="YmaF1vZXDNoTuAtLSCQE-43" value="Olá! nome! seu level é Prata!" style="strokeWidth=2;html=1;shape=mxgraph.flowchart.display;whiteSpace=wrap;" vertex="1" parent="1">
          <mxGeometry x="590" y="1012.5" width="110" height="65" as="geometry" />
        </mxCell>
        <mxCell id="YmaF1vZXDNoTuAtLSCQE-44" style="edgeStyle=orthogonalEdgeStyle;rounded=0;orthogonalLoop=1;jettySize=auto;html=1;entryX=0;entryY=0.5;entryDx=0;entryDy=0;entryPerimeter=0;" edge="1" parent="1" source="YmaF1vZXDNoTuAtLSCQE-10" target="YmaF1vZXDNoTuAtLSCQE-43">
          <mxGeometry relative="1" as="geometry" />
        </mxCell>
        <mxCell id="YmaF1vZXDNoTuAtLSCQE-45" value="SIM" style="edgeLabel;html=1;align=center;verticalAlign=middle;resizable=0;points=[];" vertex="1" connectable="0" parent="YmaF1vZXDNoTuAtLSCQE-44">
          <mxGeometry x="0.2333" y="3" relative="1" as="geometry">
            <mxPoint as="offset" />
          </mxGeometry>
        </mxCell>
        <mxCell id="YmaF1vZXDNoTuAtLSCQE-47" style="edgeStyle=orthogonalEdgeStyle;rounded=0;orthogonalLoop=1;jettySize=auto;html=1;entryX=0.5;entryY=0;entryDx=0;entryDy=0;entryPerimeter=0;" edge="1" parent="1" source="YmaF1vZXDNoTuAtLSCQE-10" target="YmaF1vZXDNoTuAtLSCQE-11">
          <mxGeometry relative="1" as="geometry" />
        </mxCell>
        <mxCell id="YmaF1vZXDNoTuAtLSCQE-51" value="NÃO" style="edgeLabel;html=1;align=center;verticalAlign=middle;resizable=0;points=[];" vertex="1" connectable="0" parent="YmaF1vZXDNoTuAtLSCQE-47">
          <mxGeometry x="-0.2" y="-1" relative="1" as="geometry">
            <mxPoint as="offset" />
          </mxGeometry>
        </mxCell>
        <mxCell id="YmaF1vZXDNoTuAtLSCQE-48" value="Olá! nome! seu level é Bronze!" style="strokeWidth=2;html=1;shape=mxgraph.flowchart.display;whiteSpace=wrap;" vertex="1" parent="1">
          <mxGeometry x="600" y="1162.5" width="110" height="65" as="geometry" />
        </mxCell>
        <mxCell id="YmaF1vZXDNoTuAtLSCQE-49" style="edgeStyle=orthogonalEdgeStyle;rounded=0;orthogonalLoop=1;jettySize=auto;html=1;entryX=0;entryY=0.5;entryDx=0;entryDy=0;entryPerimeter=0;" edge="1" parent="1" source="YmaF1vZXDNoTuAtLSCQE-11" target="YmaF1vZXDNoTuAtLSCQE-48">
          <mxGeometry relative="1" as="geometry" />
        </mxCell>
        <mxCell id="YmaF1vZXDNoTuAtLSCQE-50" value="SIM" style="edgeLabel;html=1;align=center;verticalAlign=middle;resizable=0;points=[];" vertex="1" connectable="0" parent="YmaF1vZXDNoTuAtLSCQE-49">
          <mxGeometry y="4" relative="1" as="geometry">
            <mxPoint as="offset" />
          </mxGeometry>
        </mxCell>
        <mxCell id="YmaF1vZXDNoTuAtLSCQE-52" value="Olá! nome! seu level é Ferro!" style="strokeWidth=2;html=1;shape=mxgraph.flowchart.display;whiteSpace=wrap;" vertex="1" parent="1">
          <mxGeometry x="150" y="1169" width="110" height="65" as="geometry" />
        </mxCell>
        <mxCell id="YmaF1vZXDNoTuAtLSCQE-53" style="edgeStyle=orthogonalEdgeStyle;rounded=0;orthogonalLoop=1;jettySize=auto;html=1;entryX=1.027;entryY=0.4;entryDx=0;entryDy=0;entryPerimeter=0;" edge="1" parent="1" source="YmaF1vZXDNoTuAtLSCQE-11" target="YmaF1vZXDNoTuAtLSCQE-52">
          <mxGeometry relative="1" as="geometry" />
        </mxCell>
        <mxCell id="YmaF1vZXDNoTuAtLSCQE-54" value="NÃO" style="edgeLabel;html=1;align=center;verticalAlign=middle;resizable=0;points=[];" vertex="1" connectable="0" parent="YmaF1vZXDNoTuAtLSCQE-53">
          <mxGeometry x="-0.0913" relative="1" as="geometry">
            <mxPoint as="offset" />
          </mxGeometry>
        </mxCell>
        <mxCell id="YmaF1vZXDNoTuAtLSCQE-55" value="FIM" style="strokeWidth=2;html=1;shape=mxgraph.flowchart.start_1;whiteSpace=wrap;" vertex="1" parent="1">
          <mxGeometry x="780" y="317.5" width="100" height="60" as="geometry" />
        </mxCell>
        <mxCell id="YmaF1vZXDNoTuAtLSCQE-56" style="edgeStyle=orthogonalEdgeStyle;rounded=0;orthogonalLoop=1;jettySize=auto;html=1;entryX=0.1;entryY=0.458;entryDx=0;entryDy=0;entryPerimeter=0;" edge="1" parent="1" source="YmaF1vZXDNoTuAtLSCQE-15" target="YmaF1vZXDNoTuAtLSCQE-55">
          <mxGeometry relative="1" as="geometry" />
        </mxCell>
        <mxCell id="YmaF1vZXDNoTuAtLSCQE-57" value="FIM" style="strokeWidth=2;html=1;shape=mxgraph.flowchart.start_1;whiteSpace=wrap;" vertex="1" parent="1">
          <mxGeometry x="780" y="442.5" width="100" height="60" as="geometry" />
        </mxCell>
        <mxCell id="YmaF1vZXDNoTuAtLSCQE-58" style="edgeStyle=orthogonalEdgeStyle;rounded=0;orthogonalLoop=1;jettySize=auto;html=1;entryX=0;entryY=0.5;entryDx=0;entryDy=0;entryPerimeter=0;" edge="1" parent="1" source="YmaF1vZXDNoTuAtLSCQE-21" target="YmaF1vZXDNoTuAtLSCQE-57">
          <mxGeometry relative="1" as="geometry" />
        </mxCell>
        <mxCell id="YmaF1vZXDNoTuAtLSCQE-59" value="FIM" style="strokeWidth=2;html=1;shape=mxgraph.flowchart.start_1;whiteSpace=wrap;" vertex="1" parent="1">
          <mxGeometry x="790" y="585" width="100" height="60" as="geometry" />
        </mxCell>
        <mxCell id="YmaF1vZXDNoTuAtLSCQE-60" style="edgeStyle=orthogonalEdgeStyle;rounded=0;orthogonalLoop=1;jettySize=auto;html=1;entryX=0;entryY=0.5;entryDx=0;entryDy=0;entryPerimeter=0;" edge="1" parent="1" source="YmaF1vZXDNoTuAtLSCQE-26" target="YmaF1vZXDNoTuAtLSCQE-59">
          <mxGeometry relative="1" as="geometry" />
        </mxCell>
        <mxCell id="YmaF1vZXDNoTuAtLSCQE-61" value="FIM" style="strokeWidth=2;html=1;shape=mxgraph.flowchart.start_1;whiteSpace=wrap;" vertex="1" parent="1">
          <mxGeometry x="790" y="720" width="100" height="60" as="geometry" />
        </mxCell>
        <mxCell id="YmaF1vZXDNoTuAtLSCQE-62" style="edgeStyle=orthogonalEdgeStyle;rounded=0;orthogonalLoop=1;jettySize=auto;html=1;entryX=0;entryY=0.5;entryDx=0;entryDy=0;entryPerimeter=0;" edge="1" parent="1" source="YmaF1vZXDNoTuAtLSCQE-31" target="YmaF1vZXDNoTuAtLSCQE-61">
          <mxGeometry relative="1" as="geometry" />
        </mxCell>
        <mxCell id="YmaF1vZXDNoTuAtLSCQE-63" value="FIM" style="strokeWidth=2;html=1;shape=mxgraph.flowchart.start_1;whiteSpace=wrap;" vertex="1" parent="1">
          <mxGeometry x="790" y="865" width="100" height="60" as="geometry" />
        </mxCell>
        <mxCell id="YmaF1vZXDNoTuAtLSCQE-64" style="edgeStyle=orthogonalEdgeStyle;rounded=0;orthogonalLoop=1;jettySize=auto;html=1;entryX=0;entryY=0.5;entryDx=0;entryDy=0;entryPerimeter=0;" edge="1" parent="1" source="YmaF1vZXDNoTuAtLSCQE-38" target="YmaF1vZXDNoTuAtLSCQE-63">
          <mxGeometry relative="1" as="geometry" />
        </mxCell>
        <mxCell id="YmaF1vZXDNoTuAtLSCQE-65" value="FIM" style="strokeWidth=2;html=1;shape=mxgraph.flowchart.start_1;whiteSpace=wrap;" vertex="1" parent="1">
          <mxGeometry x="790" y="1012.5" width="100" height="60" as="geometry" />
        </mxCell>
        <mxCell id="YmaF1vZXDNoTuAtLSCQE-66" style="edgeStyle=orthogonalEdgeStyle;rounded=0;orthogonalLoop=1;jettySize=auto;html=1;entryX=0;entryY=0.5;entryDx=0;entryDy=0;entryPerimeter=0;" edge="1" parent="1" source="YmaF1vZXDNoTuAtLSCQE-43" target="YmaF1vZXDNoTuAtLSCQE-65">
          <mxGeometry relative="1" as="geometry" />
        </mxCell>
        <mxCell id="YmaF1vZXDNoTuAtLSCQE-69" value="FIM" style="strokeWidth=2;html=1;shape=mxgraph.flowchart.start_1;whiteSpace=wrap;" vertex="1" parent="1">
          <mxGeometry x="340" y="1340" width="100" height="60" as="geometry" />
        </mxCell>
        <mxCell id="YmaF1vZXDNoTuAtLSCQE-71" value="" style="endArrow=none;html=1;rounded=0;" edge="1" parent="1">
          <mxGeometry width="50" height="50" relative="1" as="geometry">
            <mxPoint x="640" y="1227.5" as="sourcePoint" />
            <mxPoint x="640" y="1370" as="targetPoint" />
          </mxGeometry>
        </mxCell>
        <mxCell id="YmaF1vZXDNoTuAtLSCQE-73" value="" style="endArrow=classic;html=1;rounded=0;entryX=1;entryY=0.367;entryDx=0;entryDy=0;entryPerimeter=0;" edge="1" parent="1">
          <mxGeometry width="50" height="50" relative="1" as="geometry">
            <mxPoint x="640" y="1368.99" as="sourcePoint" />
            <mxPoint x="440" y="1371.01" as="targetPoint" />
          </mxGeometry>
        </mxCell>
        <mxCell id="YmaF1vZXDNoTuAtLSCQE-74" value="" style="endArrow=none;html=1;rounded=0;" edge="1" parent="1">
          <mxGeometry width="50" height="50" relative="1" as="geometry">
            <mxPoint x="220" y="1234" as="sourcePoint" />
            <mxPoint x="220" y="1370" as="targetPoint" />
          </mxGeometry>
        </mxCell>
        <mxCell id="YmaF1vZXDNoTuAtLSCQE-75" value="" style="endArrow=classic;html=1;rounded=0;entryX=0;entryY=0.5;entryDx=0;entryDy=0;entryPerimeter=0;" edge="1" parent="1" target="YmaF1vZXDNoTuAtLSCQE-69">
          <mxGeometry width="50" height="50" relative="1" as="geometry">
            <mxPoint x="220" y="1370" as="sourcePoint" />
            <mxPoint x="30" y="1371" as="targetPoint" />
          </mxGeometry>
        </mxCell>
      </root>
    </mxGraphModel>
  </diagram>
</mxfile>
